<?xml version="1.0" encoding="UTF-8"?>
<svg version="1.1" xmlns="http://www.w3.org/2000/svg" width="4096" height="4096">
<path d="M0 0 C99 0 198 0 300 0 C300 44.88 300 89.76 300 136 C250.5 136 201 136 150 136 C150 140.62 150 145.24 150 150 C343.71 150 537.42 150 737 150 C737 195.21 737 240.42 737 287 C741.62 287 746.24 287 751 287 C751 241.79 751 196.58 751 150 C795.88 150 840.76 150 887 150 C887 190.59 887 231.18 887 273 C882.38 273 877.76 273 873 273 C873 277.62 873 282.24 873 287 C877.62 287 882.24 287 887 287 C887 764.51 887 1242.02 887 1734 C1121.3 1734 1355.6 1734 1597 1734 C1597 1783.5 1597 1833 1597 1884 C1646.5 1884 1696 1884 1747 1884 C1747 1978.71 1747 2073.42 1747 2171 C1751.62 2171 1756.24 2171 1761 2171 C1761 2076.29 1761 1981.58 1761 1884 C1805.88 1884 1850.76 1884 1897 1884 C1897 2221.92 1897 2559.84 1897 2908 C1852.12 2908 1807.24 2908 1761 2908 C1761 2858.5 1761 2809 1761 2758 C1756.38 2758 1751.76 2758 1747 2758 C1747 2857 1747 2956 1747 3058 C791.98 3058 -163.04 3058 -1147 3058 C-1147 2625.37 -1147 2192.74 -1147 1747 C-1196.5 1747 -1246 1747 -1297 1747 C-1297 1598.5 -1297 1450 -1297 1297 C-1252.12 1297 -1207.24 1297 -1161 1297 C-1161 1301.62 -1161 1306.24 -1161 1311 C-1156.38 1311 -1151.76 1311 -1147 1311 C-1147 1306.38 -1147 1301.76 -1147 1297 C-1102.12 1297 -1057.24 1297 -1011 1297 C-1011 1251.79 -1011 1206.58 -1011 1160 C-961.5 1160 -912 1160 -861 1160 C-861 1110.5 -861 1061 -861 1010 C-671.58 1010 -482.16 1010 -287 1010 C-287 915.29 -287 820.58 -287 723 C-291.62 723 -296.24 723 -301 723 C-301 813.42 -301 903.84 -301 997 C-345.88 997 -390.76 997 -437 997 C-437 812.2 -437 627.4 -437 437 C-392.12 437 -347.24 437 -301 437 C-301 486.5 -301 536 -301 587 C-296.38 587 -291.76 587 -287 587 C-287 537.5 -287 488 -287 437 C-242.12 437 -197.24 437 -151 437 C-151 387.5 -151 338 -151 287 C-146.38 287 -141.76 287 -137 287 C-137 282.38 -137 277.76 -137 273 C-141.62 273 -146.24 273 -151 273 C-151 232.41 -151 191.82 -151 150 C-105.79 150 -60.58 150 -14 150 C-14 195.21 -14 240.42 -14 287 C-9.38 287 -4.76 287 0 287 C0 192.29 0 97.58 0 0 Z M-1161 1324 C-1161 1364.59 -1161 1405.18 -1161 1447 C-1156.38 1447 -1151.76 1447 -1147 1447 C-1147 1406.41 -1147 1365.82 -1147 1324 C-1151.62 1324 -1156.24 1324 -1161 1324 Z " fill="#070705" transform="translate(1748,519)"/>
<path d="M0 0 C193.71 0 387.42 0 587 0 C587 856.02 587 1712.04 587 2594 C348.08 2594 109.16 2594 -137 2594 C-137 1783.19 -137 972.38 -137 137 C-91.79 137 -46.58 137 0 137 C0 91.79 0 46.58 0 0 Z " fill="#52925E" transform="translate(1748,819)"/>
<path d="M0 0 C99 0 198 0 300 0 C300 44.88 300 89.76 300 136 C250.5 136 201 136 150 136 C150 140.62 150 145.24 150 150 C343.71 150 537.42 150 737 150 C737 195.21 737 240.42 737 287 C741.62 287 746.24 287 751 287 C751 241.79 751 196.58 751 150 C795.88 150 840.76 150 887 150 C887 190.59 887 231.18 887 273 C882.38 273 877.76 273 873 273 C873 277.62 873 282.24 873 287 C877.62 287 882.24 287 887 287 C887 764.51 887 1242.02 887 1734 C1121.3 1734 1355.6 1734 1597 1734 C1597 1833 1597 1932 1597 2034 C1552.12 2034 1507.24 2034 1461 2034 C1461 2317.8 1461 2601.6 1461 2894 C1217.46 2894 973.92 2894 723 2894 C723 2610.2 723 2326.4 723 2034 C678.12 2034 633.24 2034 587 2034 C587 1461.78 587 889.56 587 300 C393.29 300 199.58 300 0 300 C0 345.21 0 390.42 0 437 C-45.21 437 -90.42 437 -137 437 C-137 1247.81 -137 2058.62 -137 2894 C-141.62 2894 -146.24 2894 -151 2894 C-151 2033.69 -151 1173.38 -151 287 C-146.38 287 -141.76 287 -137 287 C-137 282.38 -137 277.76 -137 273 C-141.62 273 -146.24 273 -151 273 C-151 232.41 -151 191.82 -151 150 C-105.79 150 -60.58 150 -14 150 C-14 195.21 -14 240.42 -14 287 C-9.38 287 -4.76 287 0 287 C0 192.29 0 97.58 0 0 Z " fill="#1B590F" transform="translate(1748,519)"/>
<path d="M0 0 C189.42 0 378.84 0 574 0 C574 572.22 574 1144.44 574 1734 C339.7 1734 105.4 1734 -136 1734 C-136 1211.61 -136 689.22 -136 151 C-91.12 151 -46.24 151 0 151 C0 101.17 0 51.34 0 0 Z " fill="#B94441" transform="translate(887,1679)"/>
<path d="M0 0 C238.92 0 477.84 0 724 0 C724 49.5 724 99 724 150 C679.12 150 634.24 150 588 150 C588 433.8 588 717.6 588 1010 C349.08 1010 110.16 1010 -136 1010 C-136 726.2 -136 442.4 -136 150 C-91.12 150 -46.24 150 0 150 C0 100.5 0 51 0 0 Z " fill="#3750A3" transform="translate(2621,2403)"/>
<path d="M0 0 C193.71 0 387.42 0 587 0 C587 811.14 587 1622.28 587 2458 C537.5 2458 488 2458 437 2458 C437 1786.45 437 1114.9 437 423 C247.58 423 58.16 423 -137 423 C-137 328.62 -137 234.24 -137 137 C-91.79 137 -46.58 137 0 137 C0 91.79 0 46.58 0 0 Z " fill="#62B070" transform="translate(1748,819)"/>
<path d="M0 0 C49.5 0 99 0 150 0 C150 94.71 150 189.42 150 287 C154.62 287 159.24 287 164 287 C164 192.29 164 97.58 164 0 C208.88 0 253.76 0 300 0 C300 337.92 300 675.84 300 1024 C255.12 1024 210.24 1024 164 1024 C164 974.5 164 925 164 874 C159.38 874 154.76 874 150 874 C150 973 150 1072 150 1174 C100.5 1174 51 1174 0 1174 C0 1124.5 0 1075 0 1024 C-94.71 1024 -189.42 1024 -287 1024 C-287 1019.38 -287 1014.76 -287 1010 C-237.17 1010 -187.34 1010 -136 1010 C-136 726.2 -136 442.4 -136 150 C-91.12 150 -46.24 150 0 150 C0 100.5 0 51 0 0 Z " fill="#312C0E" transform="translate(3345,2403)"/>
<path d="M0 0 C189.42 0 378.84 0 574 0 C574 572.22 574 1144.44 574 1734 C524.5 1734 475 1734 424 1734 C424 1256.49 424 778.98 424 287 C239.2 287 54.4 287 -136 287 C-136 242.12 -136 197.24 -136 151 C-91.12 151 -46.24 151 0 151 C0 101.17 0 51.34 0 0 Z " fill="#D89467" transform="translate(887,1679)"/>
<path d="M0 0 C44.88 0 89.76 0 136 0 C136 40.59 136 81.18 136 123 C131.38 123 126.76 123 122 123 C122 127.62 122 132.24 122 137 C126.62 137 131.24 137 136 137 C136 614.51 136 1092.02 136 1584 C370.3 1584 604.6 1584 846 1584 C846 1633.5 846 1683 846 1734 C607.08 1734 368.16 1734 122 1734 C122 1783.5 122 1833 122 1884 C77.12 1884 32.24 1884 -14 1884 C-14 1307.49 -14 730.98 -14 137 C-9.38 137 -4.76 137 0 137 C0 91.79 0 46.58 0 0 Z " fill="#0C0C08" transform="translate(2499,669)"/>
<path d="M0 0 C189.42 0 378.84 0 574 0 C574 283.8 574 567.6 574 860 C528.79 860 483.58 860 437 860 C437 670.58 437 481.16 437 286 C247.91 286 58.82 286 -136 286 C-136 236.5 -136 187 -136 136 C-91.12 136 -46.24 136 0 136 C0 91.12 0 46.24 0 0 Z " fill="#36A3DF" transform="translate(2621,2417)"/>
<path d="M0 0 C44.88 0 89.76 0 136 0 C136 4.62 136 9.24 136 14 C140.62 14 145.24 14 150 14 C150 9.38 150 4.76 150 0 C190.59 0 231.18 0 273 0 C273 527.01 273 1054.02 273 1597 C212.115 1597.495 212.115 1597.495 150 1598 C150 1219.16 150 840.32 150 450 C100.5 450 51 450 0 450 C0 301.5 0 153 0 0 Z M136 27 C136 67.59 136 108.18 136 150 C140.62 150 145.24 150 150 150 C150 109.41 150 68.82 150 27 C145.38 27 140.76 27 136 27 Z " fill="#14130A" transform="translate(451,1816)"/>
<path d="M0 0 C45.21 0 90.42 0 137 0 C137 522.72 137 1045.44 137 1584 C91.79 1584 46.58 1584 0 1584 C0 1061.28 0 538.56 0 0 Z " fill="#ACC2B0" transform="translate(2198,1106)"/>
<path d="M0 0 C193.71 0 387.42 0 587 0 C587 45.21 587 90.42 587 137 C537.5 137 488 137 437 137 C437 186.5 437 236 437 287 C247.58 287 58.16 287 -137 287 C-137 237.5 -137 188 -137 137 C-91.79 137 -46.58 137 0 137 C0 91.79 0 46.58 0 0 Z " fill="#99CF8E" transform="translate(1748,819)"/>
<path d="M0 0 C44.88 0 89.76 0 136 0 C136 337.92 136 675.84 136 1024 C91.12 1024 46.24 1024 0 1024 C0 974.5 0 925 0 874 C-4.62 874 -9.24 874 -14 874 C-14 680.29 -14 486.58 -14 287 C-9.38 287 -4.76 287 0 287 C0 192.29 0 97.58 0 0 Z " fill="#6C5C24" transform="translate(3509,2403)"/>
<path d="M0 0 C99 0 198 0 300 0 C300 44.88 300 89.76 300 136 C250.5 136 201 136 150 136 C150 140.62 150 145.24 150 150 C343.71 150 537.42 150 737 150 C737 195.21 737 240.42 737 287 C493.79 287 250.58 287 0 287 C0 192.29 0 97.58 0 0 Z " fill="#0D0C09" transform="translate(1748,519)"/>
<path d="M0 0 C44.88 0 89.76 0 136 0 C136 283.8 136 567.6 136 860 C91.12 860 46.24 860 0 860 C0 576.2 0 292.4 0 0 Z " fill="#373A47" transform="translate(3209,2553)"/>
<path d="M0 0 C45.21 0 90.42 0 137 0 C137 238.92 137 477.84 137 724 C91.79 724 46.58 724 0 724 C0 485.08 0 246.16 0 0 Z " fill="#FCB9BA" transform="translate(1324,1966)"/>
<path d="M0 0 C184.8 0 369.6 0 560 0 C560 49.5 560 99 560 150 C375.2 150 190.4 150 0 150 C0 100.5 0 51 0 0 Z " fill="#C56D53" transform="translate(751,1966)"/>
<path d="M0 0 C45.21 0 90.42 0 137 0 C137 193.71 137 387.42 137 587 C91.79 587 46.58 587 0 587 C0 393.29 0 199.58 0 0 Z " fill="#B9C5C9" transform="translate(3058,2690)"/>
<path d="M0 0 C45.21 0 90.42 0 137 0 C137 193.71 137 387.42 137 587 C91.79 587 46.58 587 0 587 C0 393.29 0 199.58 0 0 Z " fill="#929B95" transform="translate(2198,2690)"/>
<path d="M0 0 C45.21 0 90.42 0 137 0 C137 193.71 137 387.42 137 587 C91.79 587 46.58 587 0 587 C0 393.29 0 199.58 0 0 Z " fill="#ED9395" transform="translate(1324,2690)"/>
<path d="M0 0 C44.88 0 89.76 0 136 0 C136 49.5 136 99 136 150 C140.62 150 145.24 150 150 150 C150 194.88 150 239.76 150 286 C145.38 286 140.76 286 136 286 C136 376.42 136 466.84 136 560 C91.12 560 46.24 560 0 560 C0 375.2 0 190.4 0 0 Z " fill="#3C301C" transform="translate(1311,956)"/>
<path d="M0 0 C45.21 0 90.42 0 137 0 C137 45.21 137 90.42 137 137 C141.62 137 146.24 137 151 137 C151 186.5 151 236 151 287 C105.79 287 60.58 287 14 287 C14 1097.81 14 1908.62 14 2744 C9.38 2744 4.76 2744 0 2744 C0 1883.69 0 1023.38 0 137 C4.62 137 9.24 137 14 137 C14 132.38 14 127.76 14 123 C9.38 123 4.76 123 0 123 C0 82.41 0 41.82 0 0 Z " fill="#0B0A08" transform="translate(1597,669)"/>
<path d="M0 0 C40.59 0 81.18 0 123 0 C123 198.33 123 396.66 123 601 C82.41 601 41.82 601 0 601 C0 402.67 0 204.34 0 0 Z " fill="#433221" transform="translate(2649,1529)"/>
<path d="M0 0 C44.88 0 89.76 0 136 0 C136 4.62 136 9.24 136 14 C140.62 14 145.24 14 150 14 C150 18.29 150 22.58 150 27 C145.38 27 140.76 27 136 27 C136 67.59 136 108.18 136 150 C140.62 150 145.24 150 150 150 C150 249 150 348 150 450 C100.5 450 51 450 0 450 C0 301.5 0 153 0 0 Z " fill="#55442A" transform="translate(451,1816)"/>
<path d="M0 0 C238.92 0 477.84 0 724 0 C724 49.5 724 99 724 150 C679.12 150 634.24 150 588 150 C588 433.8 588 717.6 588 1010 C538.17 1010 488.34 1010 437 1010 C437 965.12 437 920.24 437 874 C482.21 874 527.42 874 574 874 C574 590.2 574 306.4 574 14 C384.58 14 195.16 14 0 14 C0 9.38 0 4.76 0 0 Z " fill="#465A9B" transform="translate(2621,2403)"/>
<path d="M0 0 C49.5 0 99 0 150 0 C150 49.5 150 99 150 150 C104.79 150 59.58 150 13 150 C13 866.43 13 1582.86 13 2321 C8.71 2321 4.42 2321 0 2321 C0 1555.07 0 789.14 0 0 Z " fill="#7EA985" transform="translate(2185,956)"/>
<path d="M0 0 C49.5 0 99 0 150 0 C150 49.83 150 99.66 150 151 C105.12 151 60.24 151 14 151 C14 673.39 14 1195.78 14 1734 C9.38 1734 4.76 1734 0 1734 C0 1161.78 0 589.56 0 0 Z " fill="#80332D" transform="translate(737,1679)"/>
<path d="M0 0 C99 0 198 0 300 0 C300 44.88 300 89.76 300 136 C250.5 136 201 136 150 136 C150 140.62 150 145.24 150 150 C100.5 150 51 150 0 150 C0 100.5 0 51 0 0 Z " fill="#483827" transform="translate(1748,519)"/>
<path d="M0 0 C44.88 0 89.76 0 136 0 C136 49.5 136 99 136 150 C131.38 150 126.76 150 122 150 C122 199.5 122 249 122 300 C81.74 300 41.48 300 0 300 C0 201 0 102 0 0 Z " fill="#545432" transform="translate(451,3127)"/>
<path d="M0 0 C44.88 0 89.76 0 136 0 C136 85.8 136 171.6 136 260 C91.12 260 46.24 260 0 260 C0 174.2 0 88.4 0 0 Z " fill="#381C1C" transform="translate(1311,1256)"/>
<path d="M0 0 C4.62 0 9.24 0 14 0 C14 810.81 14 1621.62 14 2457 C9.38 2457 4.76 2457 0 2457 C0 1646.19 0 835.38 0 0 Z " fill="#1F3523" transform="translate(1597,956)"/>
<path d="M0 0 C4.62 0 9.24 0 14 0 C14 806.52 14 1613.04 14 2444 C9.38 2444 4.76 2444 0 2444 C0 1637.48 0 830.96 0 0 Z " fill="#16460D" transform="translate(2471,969)"/>
<path d="M0 0 C243.21 0 486.42 0 737 0 C737 49.5 737 99 737 150 C687.5 150 638 150 587 150 C587 104.79 587 59.58 587 13 C393.29 13 199.58 13 0 13 C0 8.71 0 4.42 0 0 Z " fill="#53935E" transform="translate(1748,806)"/>
<path d="M0 0 C4.62 0 9.24 0 14 0 C14 238.59 14 477.18 14 723 C-35.83 723 -85.66 723 -137 723 C-137 678.12 -137 633.24 -137 587 C-91.79 587 -46.58 587 0 587 C0 393.29 0 199.58 0 0 Z " fill="#828D87" transform="translate(3195,2690)"/>
<path d="M0 0 C4.62 0 9.24 0 14 0 C14 193.71 14 387.42 14 587 C-26.59 587 -67.18 587 -109 587 C-109 532.88 -109 478.76 -109 423 C-73.03 423 -37.06 423 0 423 C0 283.41 0 143.82 0 0 Z " fill="#3D2929" transform="translate(2758,1543)"/>
<path d="M0 0 C4.62 0 9.24 0 14 0 C14 99 14 198 14 300 C-35.5 300 -85 300 -136 300 C-136 250.5 -136 201 -136 150 C-91.12 150 -46.24 150 0 150 C0 100.5 0 51 0 0 Z " fill="#60492F" transform="translate(587,1966)"/>
<path d="M0 0 C4.62 0 9.24 0 14 0 C14 572.22 14 1144.44 14 1734 C9.38 1734 4.76 1734 0 1734 C0 1161.78 0 589.56 0 0 Z " fill="#594141" transform="translate(1461,1679)"/>
<path d="M0 0 C4.62 0 9.24 0 14 0 C14 567.6 14 1135.2 14 1720 C9.38 1720 4.76 1720 0 1720 C0 1152.4 0 584.8 0 0 Z " fill="#070007" transform="translate(2485,806)"/>
<path d="M0 0 C49.5 0 99 0 150 0 C150 49.5 150 99 150 150 C100.5 150 51 150 0 150 C0 100.5 0 51 0 0 Z " fill="#1D1A06" transform="translate(3195,3427)"/>
<path d="M0 0 C4.62 0 9.24 0 14 0 C14 522.72 14 1045.44 14 1584 C9.38 1584 4.76 1584 0 1584 C0 1061.28 0 538.56 0 0 Z " fill="#B3C8B7" transform="translate(2321,1106)"/>
<path d="M0 0 C45.21 0 90.42 0 137 0 C137 49.5 137 99 137 150 C91.79 150 46.58 150 0 150 C0 100.5 0 51 0 0 Z " fill="#91AFBC" transform="translate(3058,3127)"/>
<path d="M0 0 C49.5 0 99 0 150 0 C150 45.21 150 90.42 150 137 C100.5 137 51 137 0 137 C0 91.79 0 46.58 0 0 Z " fill="#111009" transform="translate(737,1679)"/>
<path d="M0 0 C44.88 0 89.76 0 136 0 C136 49.5 136 99 136 150 C91.12 150 46.24 150 0 150 C0 100.5 0 51 0 0 Z " fill="#7F702A" transform="translate(3509,3277)"/>
<path d="M0 0 C45.21 0 90.42 0 137 0 C137 44.88 137 89.76 137 136 C87.5 136 38 136 -13 136 C-13 95.41 -13 54.82 -13 13 C-8.71 13 -4.42 13 0 13 C0 8.71 0 4.42 0 0 Z " fill="#444421" transform="translate(1911,519)"/>
<path d="M0 0 C4.29 0 8.58 0 13 0 C13 477.51 13 955.02 13 1447 C8.71 1447 4.42 1447 0 1447 C0 969.49 0 491.98 0 0 Z " fill="#255E1C" transform="translate(2335,1106)"/>
<path d="M0 0 C45.21 0 90.42 0 137 0 C137 45.21 137 90.42 137 137 C91.79 137 46.58 137 0 137 C0 91.79 0 46.58 0 0 Z " fill="#3E3E27" transform="translate(737,1529)"/>
<path d="M0 0 C45.21 0 90.42 0 137 0 C137 45.21 137 90.42 137 137 C91.79 137 46.58 137 0 137 C0 91.79 0 46.58 0 0 Z " fill="#51915D" transform="translate(2198,969)"/>
<path d="M0 0 C45.21 0 90.42 0 137 0 C137 45.21 137 90.42 137 137 C91.79 137 46.58 137 0 137 C0 91.79 0 46.58 0 0 Z " fill="#ADC2B1" transform="translate(2198,819)"/>
<path d="M0 0 C45.21 0 90.42 0 137 0 C137 44.88 137 89.76 137 136 C91.79 136 46.58 136 0 136 C0 91.12 0 46.24 0 0 Z " fill="#718976" transform="translate(2198,3277)"/>
<path d="M0 0 C45.21 0 90.42 0 137 0 C137 44.88 137 89.76 137 136 C91.79 136 46.58 136 0 136 C0 91.12 0 46.24 0 0 Z " fill="#B59D69" transform="translate(1324,3277)"/>
<path d="M0 0 C44.88 0 89.76 0 136 0 C136 4.62 136 9.24 136 14 C131.71 14 127.42 14 123 14 C123 58.88 123 103.76 123 150 C82.41 150 41.82 150 0 150 C0 100.5 0 51 0 0 Z " fill="#655421" transform="translate(3509,2403)"/>
<path d="M0 0 C45.21 0 90.42 0 137 0 C137 44.88 137 89.76 137 136 C91.79 136 46.58 136 0 136 C0 91.12 0 46.24 0 0 Z " fill="#C46B53" transform="translate(1324,1830)"/>
<path d="M0 0 C45.21 0 90.42 0 137 0 C137 45.21 137 90.42 137 137 C96.41 137 55.82 137 14 137 C14 132.38 14 127.76 14 123 C9.38 123 4.76 123 0 123 C0 82.41 0 41.82 0 0 Z " fill="#483D23" transform="translate(1597,669)"/>
<path d="M0 0 C44.88 0 89.76 0 136 0 C136 44.88 136 89.76 136 136 C91.12 136 46.24 136 0 136 C0 91.12 0 46.24 0 0 Z " fill="#534924" transform="translate(3359,2253)"/>
<path d="M0 0 C44.88 0 89.76 0 136 0 C136 44.88 136 89.76 136 136 C91.12 136 46.24 136 0 136 C0 91.12 0 46.24 0 0 Z " fill="#37291C" transform="translate(1311,956)"/>
<path d="M0 0 C44.88 0 89.76 0 136 0 C136 40.59 136 81.18 136 123 C131.38 123 126.76 123 122 123 C122 127.62 122 132.24 122 137 C81.74 137 41.48 137 0 137 C0 91.79 0 46.58 0 0 Z " fill="#463729" transform="translate(2499,669)"/>
<path d="M0 0 C40.26 0 80.52 0 122 0 C122 49.5 122 99 122 150 C81.74 150 41.48 150 0 150 C0 100.5 0 51 0 0 Z " fill="#000000" transform="translate(451,3277)"/>
<path d="M0 0 C40.26 0 80.52 0 122 0 C122 49.5 122 99 122 150 C81.74 150 41.48 150 0 150 C0 100.5 0 51 0 0 Z " fill="#564421" transform="translate(451,1816)"/>
<path d="M0 0 C4.29 0 8.58 0 13 0 C13 428.01 13 856.02 13 1297 C8.71 1297 4.42 1297 0 1297 C0 868.99 0 440.98 0 0 Z " fill="#C85E5E" transform="translate(1311,2116)"/>
<path d="M0 0 C40.59 0 81.18 0 123 0 C123 40.59 123 81.18 123 123 C82.41 123 41.82 123 0 123 C0 82.41 0 41.82 0 0 Z " fill="#55381C" transform="translate(601,1679)"/>
<path d="M0 0 C40.59 0 81.18 0 123 0 C123 40.59 123 81.18 123 123 C82.41 123 41.82 123 0 123 C0 82.41 0 41.82 0 0 Z " fill="#2A2A2A" transform="translate(1324,1393)"/>
<path d="M0 0 C4.62 0 9.24 0 14 0 C14 283.8 14 567.6 14 860 C9.38 860 4.76 860 0 860 C0 576.2 0 292.4 0 0 Z " fill="#1D2A55" transform="translate(2471,2553)"/>
<path d="M0 0 C4.29 0 8.58 0 13 0 C13 283.8 13 567.6 13 860 C8.71 860 4.42 860 0 860 C0 576.2 0 292.4 0 0 Z " fill="#151615" transform="translate(2335,2553)"/>
<path d="M0 0 C238.92 0 477.84 0 724 0 C724 4.62 724 9.24 724 14 C485.08 14 246.16 14 0 14 C0 9.38 0 4.76 0 0 Z " fill="#1F3623" transform="translate(1611,3413)"/>
<path d="M0 0 C238.92 0 477.84 0 724 0 C724 4.62 724 9.24 724 14 C485.08 14 246.16 14 0 14 C0 9.38 0 4.76 0 0 Z " fill="#3A1614" transform="translate(737,3413)"/>
<path d="M0 0 C4.62 0 9.24 0 14 0 C14 238.59 14 477.18 14 723 C9.38 723 4.76 723 0 723 C0 484.41 0 245.82 0 0 Z " fill="#70777F" transform="translate(3195,2690)"/>
<path d="M0 0 C4.29 0 8.58 0 13 0 C13 238.59 13 477.18 13 723 C8.38 723 3.76 723 -1 723 C-1.01710938 654.18086302 -1.03303116 585.36172581 -1.04234314 516.54258728 C-1.0424812 515.52489483 -1.04261925 514.50720238 -1.04276149 513.45867077 C-1.04575404 491.34426927 -1.04852427 469.22986774 -1.05106533 447.11546618 C-1.05231272 436.27139477 -1.05360927 425.42732336 -1.05493164 414.58325195 C-1.0550624 413.50410629 -1.05519316 412.42496062 -1.05532788 411.31311357 C-1.05959322 376.30179608 -1.06710751 341.29048019 -1.07629722 306.27916367 C-1.08571961 270.31625939 -1.09188307 234.353356 -1.09391499 198.39045051 C-1.09420317 193.3170624 -1.0945288 188.24367429 -1.09487724 183.17028618 C-1.09494467 182.17171895 -1.09501209 181.17315173 -1.09508156 180.14432489 C-1.09626569 164.03609193 -1.10091024 147.92786172 -1.10683203 131.81962988 C-1.11270461 115.64605673 -1.11497167 99.4724863 -1.11350138 83.29891212 C-1.11273776 73.67656777 -1.11479548 64.05423339 -1.12079754 54.43189083 C-1.12452764 48.01663065 -1.12467773 41.60137705 -1.12183181 35.18611642 C-1.12031173 31.52282623 -1.12042858 27.85955499 -1.12488318 24.19626678 C-1.12962919 20.26376558 -1.1267666 16.33129224 -1.12304783 12.39878941 C-1.12567484 11.24307901 -1.12830186 10.08736862 -1.13100848 8.89663669 C-1.12876118 7.85946218 -1.12651389 6.82228767 -1.1241985 5.75368363 C-1.12435448 4.85289552 -1.12451046 3.95210742 -1.12467116 3.0240227 C-1 1 -1 1 0 0 Z " fill="#533535" transform="translate(1462,2690)"/>
<path d="M0 0 C45.21 0 90.42 0 137 0 C137 189.09 137 378.18 137 573 C132.38 573 127.76 573 123 573 C123 388.2 123 203.4 123 13 C82.41 13 41.82 13 0 13 C0 8.71 0 4.42 0 0 Z " fill="#98A29B" transform="translate(2198,2690)"/>
<path d="M0 0 C45.21 0 90.42 0 137 0 C137 189.09 137 378.18 137 573 C132.38 573 127.76 573 123 573 C123 388.2 123 203.4 123 13 C82.41 13 41.82 13 0 13 C0 8.71 0 4.42 0 0 Z " fill="#F5979A" transform="translate(1324,2690)"/>
<path d="M0 0 C243.21 0 486.42 0 737 0 C737 4.29 737 8.58 737 13 C493.79 13 250.58 13 0 13 C0 8.71 0 4.42 0 0 Z " fill="#3A4C35" transform="translate(1748,806)"/>
<path d="M0 0 C4.29 0 8.58 0 13 0 C13 234.3 13 468.6 13 710 C8.71 710 4.42 710 0 710 C0 475.7 0 241.4 0 0 Z " fill="#4F64A6" transform="translate(3045,2703)"/>
<path d="M0 0 C4.62 0 9.24 0 14 0 C14 193.71 14 387.42 14 587 C9.38 587 4.76 587 0 587 C0 393.29 0 199.58 0 0 Z " fill="#85722E" transform="translate(3495,2690)"/>
<path d="M0 0 C193.71 0 387.42 0 587 0 C587 4.62 587 9.24 587 14 C393.29 14 199.58 14 0 14 C0 9.38 0 4.76 0 0 Z " fill="#030000" transform="translate(1748,792)"/>
<path d="M0 0 C189.42 0 378.84 0 574 0 C574 4.62 574 9.24 574 14 C384.58 14 195.16 14 0 14 C0 9.38 0 4.76 0 0 Z " fill="#2B7FAC" transform="translate(2621,2403)"/>
<path d="M0 0 C189.42 0 378.84 0 574 0 C574 4.62 574 9.24 574 14 C384.58 14 195.16 14 0 14 C0 9.38 0 4.76 0 0 Z " fill="#0C0000" transform="translate(2621,2389)"/>
<path d="M0 0 C189.42 0 378.84 0 574 0 C574 4.62 574 9.24 574 14 C384.58 14 195.16 14 0 14 C0 9.38 0 4.76 0 0 Z " fill="#589E66" transform="translate(1611,1242)"/>
<path d="M0 0 C189.09 0 378.18 0 573 0 C573 4.62 573 9.24 573 14 C383.91 14 194.82 14 0 14 C0 9.38 0 4.76 0 0 Z " fill="#131A32" transform="translate(2485,3413)"/>
<path d="M0 0 C184.8 0 369.6 0 560 0 C560 4.62 560 9.24 560 14 C282.8 14.495 282.8 14.495 0 15 C0 10.05 0 5.1 0 0 Z " fill="#BC4E45" transform="translate(751,2116)"/>
<path d="M0 0 C144.21 0 288.42 0 437 0 C437 45.21 437 90.42 437 137 C432.71 137 428.42 137 424 137 C424 96.41 424 55.82 424 14 C284.08 14.33 144.16 14.66 0 15 C0 10.05 0 5.1 0 0 Z " fill="#9FD794" transform="translate(1761,819)"/>
<path d="M0 0 C194.04 0 388.08 0 588 0 C588 4.29 588 8.58 588 13 C393.96 13 199.92 13 0 13 C0 8.71 0 4.42 0 0 Z " fill="#000000" transform="translate(887,1666)"/>
<path d="M0 0 C4.29 0 8.58 0 13 0 C13 189.42 13 378.84 13 574 C8.71 574 4.42 574 0 574 C0 384.58 0 195.16 0 0 Z " fill="#709677" transform="translate(2185,2703)"/>
<path d="M0 0 C4.29 0 8.58 0 13 0 C13 189.42 13 378.84 13 574 C8.71 574 4.42 574 0 574 C0 384.58 0 195.16 0 0 Z " fill="#CE6D6D" transform="translate(1311,2116)"/>
<path d="M0 0 C189.09 0 378.18 0 573 0 C573 4.29 573 8.58 573 13 C383.91 13 194.82 13 0 13 C0 8.71 0 4.42 0 0 Z " fill="#367AC1" transform="translate(2485,2690)"/>
<path d="M0 0 C49.5 0 99 0 150 0 C150 4.62 150 9.24 150 14 C105.12 14 60.24 14 14 14 C14 108.38 14 202.76 14 300 C9.38 300 4.76 300 0 300 C0 201 0 102 0 0 Z " fill="#885E40" transform="translate(737,1816)"/>
<path d="M0 0 C44.88 0 89.76 0 136 0 C136 4.62 136 9.24 136 14 C95.41 14 54.82 14 13 14 C13 95.18 13 176.36 13 260 C8.71 260 4.42 260 0 260 C0 174.2 0 88.4 0 0 Z " fill="#3F0000" transform="translate(1311,1256)"/>
<path d="M0 0 C4.62 0 9.24 0 14 0 C14 99 14 198 14 300 C9.38 300 4.76 300 0 300 C0 201 0 102 0 0 Z " fill="#6E5837" transform="translate(587,1966)"/>
<path d="M0 0 C94.71 0 189.42 0 287 0 C287 4.62 287 9.24 287 14 C192.29 14 97.58 14 0 14 C0 9.38 0 4.76 0 0 Z " fill="#232117" transform="translate(3058,3413)"/>
<path d="M0 0 C4.62 0 9.24 0 14 0 C14 94.71 14 189.42 14 287 C9.38 287 4.76 287 0 287 C0 192.29 0 97.58 0 0 Z " fill="#4C3526" transform="translate(1461,1679)"/>
<path d="M0 0 C4.62 0 9.24 0 14 0 C14 49.5 14 99 14 150 C-35.83 150 -85.66 150 -137 150 C-137 145.38 -137 140.76 -137 136 C-91.79 136 -46.58 136 0 136 C0 91.12 0 46.24 0 0 Z " fill="#000000" transform="translate(1734,806)"/>
<path d="M0 0 C4.62 0 9.24 0 14 0 C14 94.38 14 188.76 14 286 C9.38 286 4.76 286 0 286 C0 191.62 0 97.24 0 0 Z " fill="#5D6C78" transform="translate(3195,3127)"/>
<path d="M0 0 C4.62 0 9.24 0 14 0 C14 54.12 14 108.24 14 164 C-26.59 164 -67.18 164 -109 164 C-109 159.38 -109 154.76 -109 150 C-73.03 150 -37.06 150 0 150 C0 100.5 0 51 0 0 Z " fill="#323232" transform="translate(2758,1966)"/>
<path d="M0 0 C3.96 0 7.92 0 12 0 C12 94.38 12 188.76 12 286 C7.71 286 3.42 286 -1 286 C-1.02278924 249.70970751 -1.04049759 213.41941647 -1.05106533 177.1291183 C-1.05231611 172.84934383 -1.05361042 168.56956937 -1.05493164 164.28979492 C-1.05519395 163.43773202 -1.05545626 162.58566912 -1.05572652 161.70778614 C-1.06008347 147.89272573 -1.06797116 134.07766946 -1.0771528 120.26261152 C-1.08648863 106.09790151 -1.09205546 91.93319368 -1.09408849 77.76848072 C-1.09546387 69.02088732 -1.09981523 60.27330562 -1.10791647 51.52571582 C-1.11318306 45.53551286 -1.11480449 39.54531599 -1.11350138 33.55511088 C-1.11285786 30.09379851 -1.11387703 26.63250666 -1.11920547 23.17119789 C-1.12413504 19.42743407 -1.12300102 15.68372152 -1.12025452 11.93995667 C-1.12316736 10.83394924 -1.1260802 9.72794182 -1.12908131 8.58841902 C-1.12709026 7.59366023 -1.12509921 6.59890144 -1.12304783 5.57399845 C-1.12342755 4.70861582 -1.12380727 3.84323319 -1.1241985 2.95162684 C-1 1 -1 1 0 0 Z " fill="#475FA1" transform="translate(3046,3127)"/>
<path d="M0 0 C4.29 0 8.58 0 13 0 C13 45.21 13 90.42 13 137 C-36.5 137 -86 137 -137 137 C-137 132.38 -137 127.76 -137 123 C-91.79 123 -46.58 123 0 123 C0 82.41 0 41.82 0 0 Z " fill="#000000" transform="translate(874,1679)"/>
<path d="M0 0 C44.88 0 89.76 0 136 0 C136 8.91 136 17.82 136 27 C91.12 27 46.24 27 0 27 C0 18.09 0 9.18 0 0 Z " fill="#796B27" transform="translate(3509,3400)"/>
<path d="M0 0 C44.88 0 89.76 0 136 0 C136 4.62 136 9.24 136 14 C95.74 14 55.48 14 14 14 C14 54.59 14 95.18 14 137 C9.38 137 4.76 137 0 137 C0 91.79 0 46.58 0 0 Z " fill="#33A8EC" transform="translate(2485,2553)"/>
<path d="M0 0 C4.62 0 9.24 0 14 0 C14 44.88 14 89.76 14 136 C-31.21 136 -76.42 136 -123 136 C-123 131.71 -123 127.42 -123 123 C-82.41 123 -41.82 123 0 123 C0 82.41 0 41.82 0 0 Z " fill="#BCA36D" transform="translate(1447,3277)"/>
<path d="M0 0 C4.62 0 9.24 0 14 0 C14 4.62 14 9.24 14 14 C18.62 14 23.24 14 28 14 C28 18.29 28 22.58 28 27 C23.38 27 18.76 27 14 27 C14 67.59 14 108.18 14 150 C9.38 150 4.76 150 0 150 C0 100.5 0 51 0 0 Z " fill="#745D2E" transform="translate(573,1816)"/>
<path d="M0 0 C4.62 0 9.24 0 14 0 C14 49.5 14 99 14 150 C9.38 150 4.76 150 0 150 C0 100.5 0 51 0 0 Z " fill="#747445" transform="translate(573,3127)"/>
<path d="M0 0 C4.62 0 9.24 0 14 0 C14 49.5 14 99 14 150 C9.38 150 4.76 150 0 150 C0 100.5 0 51 0 0 Z " fill="#9F953F" transform="translate(3495,2690)"/>
<path d="M0 0 C49.5 0 99 0 150 0 C150 4.62 150 9.24 150 14 C100.5 14 51 14 0 14 C0 9.38 0 4.76 0 0 Z " fill="#3C4B7E" transform="translate(3195,2403)"/>
<path d="M0 0 C49.5 0 99 0 150 0 C150 4.62 150 9.24 150 14 C100.5 14 51 14 0 14 C0 9.38 0 4.76 0 0 Z " fill="#191300" transform="translate(3195,2389)"/>
<path d="M0 0 C4.62 0 9.24 0 14 0 C14 49.5 14 99 14 150 C9.38 150 4.76 150 0 150 C0 100.5 0 51 0 0 Z " fill="#844C37" transform="translate(737,1966)"/>
<path d="M0 0 C4.62 0 9.24 0 14 0 C14 49.5 14 99 14 150 C9.38 150 4.76 150 0 150 C0 100.5 0 51 0 0 Z " fill="#374933" transform="translate(1597,956)"/>
<path d="M0 0 C49.5 0 99 0 150 0 C150 4.62 150 9.24 150 14 C100.5 14 51 14 0 14 C0 9.38 0 4.76 0 0 Z " fill="#FFC387" transform="translate(1748,655)"/>
<path d="M0 0 C4.29 0 8.58 0 13 0 C13 49.5 13 99 13 150 C8.71 150 4.42 150 0 150 C0 100.5 0 51 0 0 Z " fill="#040000" transform="translate(2608,2403)"/>
<path d="M0 0 C4.29 0 8.58 0 13 0 C13 49.5 13 99 13 150 C8.71 150 4.42 150 0 150 C0 100.5 0 51 0 0 Z " fill="#D58576" transform="translate(1311,1966)"/>
<path d="M0 0 C49.5 0 99 0 150 0 C150 4.29 150 8.58 150 13 C100.5 13 51 13 0 13 C0 8.71 0 4.42 0 0 Z " fill="#306C2F" transform="translate(2335,956)"/>
<path d="M0 0 C49.5 0 99 0 150 0 C150 4.29 150 8.58 150 13 C100.5 13 51 13 0 13 C0 8.71 0 4.42 0 0 Z " fill="#223623" transform="translate(2335,806)"/>
<path d="M0 0 C45.21 0 90.42 0 137 0 C137 4.62 137 9.24 137 14 C91.79 14 46.58 14 0 14 C0 9.38 0 4.76 0 0 Z " fill="#2D302A" transform="translate(3058,3413)"/>
<path d="M0 0 C45.21 0 90.42 0 137 0 C137 4.62 137 9.24 137 14 C91.79 14 46.58 14 0 14 C0 9.38 0 4.76 0 0 Z " fill="#283029" transform="translate(2198,3413)"/>
<path d="M0 0 C45.21 0 90.42 0 137 0 C137 4.62 137 9.24 137 14 C91.79 14 46.58 14 0 14 C0 9.38 0 4.76 0 0 Z " fill="#383020" transform="translate(1324,3413)"/>
<path d="M0 0 C45.21 0 90.42 0 137 0 C137 4.62 137 9.24 137 14 C91.79 14 46.58 14 0 14 C0 9.38 0 4.76 0 0 Z " fill="#8CA4AC" transform="translate(3058,3263)"/>
<path d="M0 0 C45.21 0 90.42 0 137 0 C137 4.62 137 9.24 137 14 C91.79 14 46.58 14 0 14 C0 9.38 0 4.76 0 0 Z " fill="#88968B" transform="translate(2198,3263)"/>
<path d="M0 0 C45.21 0 90.42 0 137 0 C137 4.62 137 9.24 137 14 C91.79 14 46.58 14 0 14 C0 9.38 0 4.76 0 0 Z " fill="#DC9687" transform="translate(1324,3263)"/>
<path d="M0 0 C4.62 0 9.24 0 14 0 C14 45.21 14 90.42 14 137 C9.38 137 4.76 137 0 137 C0 91.79 0 46.58 0 0 Z " fill="#376787" transform="translate(3195,2553)"/>
<path d="M0 0 C4.62 0 9.24 0 14 0 C14 45.21 14 90.42 14 137 C9.38 137 4.76 137 0 137 C0 91.79 0 46.58 0 0 Z " fill="#1C5374" transform="translate(2471,2553)"/>
<path d="M0 0 C45.21 0 90.42 0 137 0 C137 4.62 137 9.24 137 14 C91.79 14 46.58 14 0 14 C0 9.38 0 4.76 0 0 Z " fill="#C0664A" transform="translate(1324,1952)"/>
<path d="M0 0 C45.21 0 90.42 0 137 0 C137 4.62 137 9.24 137 14 C91.79 14 46.58 14 0 14 C0 9.38 0 4.76 0 0 Z " fill="#D08460" transform="translate(1324,1816)"/>
<path d="M0 0 C4.62 0 9.24 0 14 0 C14 45.21 14 90.42 14 137 C9.38 137 4.76 137 0 137 C0 91.79 0 46.58 0 0 Z " fill="#E0996C" transform="translate(1447,1679)"/>
<path d="M0 0 C45.21 0 90.42 0 137 0 C137 4.62 137 9.24 137 14 C91.79 14 46.58 14 0 14 C0 9.38 0 4.76 0 0 Z " fill="#5C9767" transform="translate(2198,1092)"/>
<path d="M0 0 C4.62 0 9.24 0 14 0 C14 45.21 14 90.42 14 137 C9.38 137 4.76 137 0 137 C0 91.79 0 46.58 0 0 Z " fill="#9ED793" transform="translate(1611,969)"/>
<path d="M0 0 C4.62 0 9.24 0 14 0 C14 45.21 14 90.42 14 137 C9.38 137 4.76 137 0 137 C0 91.79 0 46.58 0 0 Z " fill="#467A4E" transform="translate(2471,819)"/>
<path d="M0 0 C45.21 0 90.42 0 137 0 C137 4.62 137 9.24 137 14 C91.79 14 46.58 14 0 14 C0 9.38 0 4.76 0 0 Z " fill="#B2C9B6" transform="translate(2198,819)"/>
<path d="M0 0 C45.21 0 90.42 0 137 0 C137 4.62 137 9.24 137 14 C91.79 14 46.58 14 0 14 C0 9.38 0 4.76 0 0 Z " fill="#433528" transform="translate(1597,669)"/>
<path d="M0 0 C4.62 0 9.24 0 14 0 C14 44.88 14 89.76 14 136 C9.38 136 4.76 136 0 136 C0 91.12 0 46.24 0 0 Z " fill="#585F61" transform="translate(3195,3277)"/>
<path d="M0 0 C4.62 0 9.24 0 14 0 C14 44.88 14 89.76 14 136 C9.38 136 4.76 136 0 136 C0 91.12 0 46.24 0 0 Z " fill="#413927" transform="translate(1461,3277)"/>
<path d="M0 0 C4.62 0 9.24 0 14 0 C14 44.88 14 89.76 14 136 C9.38 136 4.76 136 0 136 C0 91.12 0 46.24 0 0 Z " fill="#967E2F" transform="translate(3495,2840)"/>
<path d="M0 0 C4.62 0 9.24 0 14 0 C14 44.88 14 89.76 14 136 C9.38 136 4.76 136 0 136 C0 91.12 0 46.24 0 0 Z " fill="#4278B4" transform="translate(3195,2417)"/>
<path d="M0 0 C4.62 0 9.24 0 14 0 C14 44.88 14 89.76 14 136 C9.38 136 4.76 136 0 136 C0 91.12 0 46.24 0 0 Z " fill="#2F94CE" transform="translate(2621,2417)"/>
<path d="M0 0 C4.62 0 9.24 0 14 0 C14 44.88 14 89.76 14 136 C9.38 136 4.76 136 0 136 C0 91.12 0 46.24 0 0 Z " fill="#BA8B5D" transform="translate(587,2130)"/>
<path d="M0 0 C4.62 0 9.24 0 14 0 C14 44.88 14 89.76 14 136 C9.38 136 4.76 136 0 136 C0 91.12 0 46.24 0 0 Z " fill="#705438" transform="translate(573,2130)"/>
<path d="M0 0 C4.62 0 9.24 0 14 0 C14 44.88 14 89.76 14 136 C9.38 136 4.76 136 0 136 C0 91.12 0 46.24 0 0 Z " fill="#45271E" transform="translate(1461,1830)"/>
<path d="M0 0 C4.62 0 9.24 0 14 0 C14 44.88 14 89.76 14 136 C9.38 136 4.76 136 0 136 C0 91.12 0 46.24 0 0 Z " fill="#906545" transform="translate(737,1830)"/>
<path d="M0 0 C4.62 0 9.24 0 14 0 C14 44.88 14 89.76 14 136 C9.38 136 4.76 136 0 136 C0 91.12 0 46.24 0 0 Z " fill="#243E28" transform="translate(1597,1106)"/>
<path d="M0 0 C4.62 0 9.24 0 14 0 C14 44.88 14 89.76 14 136 C9.38 136 4.76 136 0 136 C0 91.12 0 46.24 0 0 Z " fill="#FFCC7F" transform="translate(1447,1106)"/>
<path d="M0 0 C45.21 0 90.42 0 137 0 C137 4.29 137 8.58 137 13 C91.79 13 46.58 13 0 13 C0 8.71 0 4.42 0 0 Z " fill="#88B6D1" transform="translate(3058,2690)"/>
<path d="M0 0 C45.21 0 90.42 0 137 0 C137 4.29 137 8.58 137 13 C91.79 13 46.58 13 0 13 C0 8.71 0 4.42 0 0 Z " fill="#9EAEA2" transform="translate(2198,2690)"/>
<path d="M0 0 C45.21 0 90.42 0 137 0 C137 4.29 137 8.58 137 13 C91.79 13 46.58 13 0 13 C0 8.71 0 4.42 0 0 Z " fill="#F4A4A6" transform="translate(1324,2690)"/>
<path d="M0 0 C45.21 0 90.42 0 137 0 C137 4.29 137 8.58 137 13 C91.79 13 46.58 13 0 13 C0 8.71 0 4.42 0 0 Z " fill="#70A179" transform="translate(2198,956)"/>
<path d="M0 0 C45.21 0 90.42 0 137 0 C137 4.29 137 8.58 137 13 C91.79 13 46.58 13 0 13 C0 8.71 0 4.42 0 0 Z " fill="#7FAC76" transform="translate(1611,956)"/>
<path d="M0 0 C4.29 0 8.58 0 13 0 C13 45.21 13 90.42 13 137 C8.71 137 4.42 137 0 137 C0 91.79 0 46.58 0 0 Z " fill="#A2CA9E" transform="translate(2185,819)"/>
<path d="M0 0 C4.29 0 8.58 0 13 0 C13 45.21 13 90.42 13 137 C8.71 137 4.42 137 0 137 C0 91.79 0 46.58 0 0 Z " fill="#7EAB75" transform="translate(1748,819)"/>
<path d="M0 0 C45.21 0 90.42 0 137 0 C137 4.29 137 8.58 137 13 C91.79 13 46.58 13 0 13 C0 8.71 0 4.42 0 0 Z " fill="#414841" transform="translate(2198,806)"/>
<path d="M0 0 C4.29 0 8.58 0 13 0 C13 44.88 13 89.76 13 136 C8.71 136 4.42 136 0 136 C0 91.12 0 46.24 0 0 Z " fill="#618F69" transform="translate(2185,3277)"/>
<path d="M0 0 C4.29 0 8.58 0 13 0 C13 44.88 13 89.76 13 136 C8.71 136 4.42 136 0 136 C0 91.12 0 46.24 0 0 Z " fill="#B8624F" transform="translate(1311,3277)"/>
<path d="M0 0 C4.29 0 8.58 0 13 0 C13 44.88 13 89.76 13 136 C8.71 136 4.42 136 0 136 C0 91.12 0 46.24 0 0 Z " fill="#5D5D2E" transform="translate(451,3127)"/>
<path d="M0 0 C4.29 0 8.58 0 13 0 C13 44.88 13 89.76 13 136 C8.71 136 4.42 136 0 136 C0 91.12 0 46.24 0 0 Z " fill="#745D17" transform="translate(3632,2417)"/>
<path d="M0 0 C4.29 0 8.58 0 13 0 C13 44.88 13 89.76 13 136 C8.71 136 4.42 136 0 136 C0 91.12 0 46.24 0 0 Z " fill="#D28861" transform="translate(1311,1830)"/>
<path d="M0 0 C4.29 0 8.58 0 13 0 C13 44.88 13 89.76 13 136 C8.71 136 4.42 136 0 136 C0 91.12 0 46.24 0 0 Z " fill="#87B88F" transform="translate(2185,1106)"/>
<path d="M0 0 C40.59 0 81.18 0 123 0 C123 4.62 123 9.24 123 14 C82.41 14 41.82 14 0 14 C0 9.38 0 4.76 0 0 Z " fill="#7F552A" transform="translate(3509,3413)"/>
<path d="M0 0 C40.59 0 81.18 0 123 0 C123 4.62 123 9.24 123 14 C82.41 14 41.82 14 0 14 C0 9.38 0 4.76 0 0 Z " fill="#F7B2B2" transform="translate(1324,1966)"/>
<path d="M0 0 C40.59 0 81.18 0 123 0 C123 4.62 123 9.24 123 14 C82.41 14 41.82 14 0 14 C0 9.38 0 4.76 0 0 Z " fill="#333319" transform="translate(2649,1529)"/>
<path d="M0 0 C40.59 0 81.18 0 123 0 C123 4.62 123 9.24 123 14 C82.41 14 41.82 14 0 14 C0 9.38 0 4.76 0 0 Z " fill="#240024" transform="translate(1324,1256)"/>
<path d="M0 0 C40.59 0 81.18 0 123 0 C123 4.62 123 9.24 123 14 C82.41 14 41.82 14 0 14 C0 9.38 0 4.76 0 0 Z " fill="#FFD57F" transform="translate(1611,792)"/>
<path d="M0 0 C4.62 0 9.24 0 14 0 C14 40.59 14 81.18 14 123 C9.38 123 4.76 123 0 123 C0 82.41 0 41.82 0 0 Z " fill="#333333" transform="translate(2621,669)"/>
<path d="M0 0 C40.26 0 80.52 0 122 0 C122 4.62 122 9.24 122 14 C81.74 14 41.48 14 0 14 C0 9.38 0 4.76 0 0 Z " fill="#B6926D" transform="translate(2499,792)"/>
<path d="M0 0 C40.59 0 81.18 0 123 0 C123 4.29 123 8.58 123 13 C82.41 13 41.82 13 0 13 C0 8.71 0 4.42 0 0 Z " fill="#0B1319" transform="translate(2485,2540)"/>
<path d="M0 0 C4.29 0 8.58 0 13 0 C13 40.59 13 81.18 13 123 C8.71 123 4.42 123 0 123 C0 82.41 0 41.82 0 0 Z " fill="#000000" transform="translate(1311,1393)"/>
<path d="M0 0 C4.29 0 8.58 0 13 0 C13 40.59 13 81.18 13 123 C8.71 123 4.42 123 0 123 C0 82.41 0 41.82 0 0 Z " fill="#3F1F1F" transform="translate(1311,969)"/>
<path d="M0 0 C4.29 0 8.58 0 13 0 C13 40.59 13 81.18 13 123 C8.71 123 4.42 123 0 123 C0 82.41 0 41.82 0 0 Z " fill="#3F3F15" transform="translate(1898,532)"/>
<path d="M0 0 C35.97 0 71.94 0 109 0 C109 4.62 109 9.24 109 14 C73.03 14 37.06 14 0 14 C0 9.38 0 4.76 0 0 Z " fill="#767627" transform="translate(3509,2676)"/>
<path d="M0 0 C35.97 0 71.94 0 109 0 C109 4.62 109 9.24 109 14 C73.03 14 37.06 14 0 14 C0 9.38 0 4.76 0 0 Z " fill="#745D17" transform="translate(3509,2403)"/>
<path d="M0 0 C35.97 0 71.94 0 109 0 C109 4.62 109 9.24 109 14 C73.03 14 37.06 14 0 14 C0 9.38 0 4.76 0 0 Z " fill="#3F3F2F" transform="translate(2499,669)"/>
<path d="M0 0 C4.29 0 8.58 0 13 0 C13 36.3 13 72.6 13 110 C8.71 110 4.42 110 0 110 C0 73.7 0 37.4 0 0 Z " fill="#897627" transform="translate(3632,3290)"/>
<path d="M0 0 C31.35 0 62.7 0 95 0 C95 4.62 95 9.24 95 14 C63.65 14 32.3 14 0 14 C0 9.38 0 4.76 0 0 Z " fill="#5F3F1F" transform="translate(478,1816)"/>
<path d="M0 0 C4.62 0 9.24 0 14 0 C14 4.62 14 9.24 14 14 C18.62 14 23.24 14 28 14 C28 18.29 28 22.58 28 27 C18.76 27 9.52 27 0 27 C0 18.09 0 9.18 0 0 Z " fill="#7F552A" transform="translate(573,1816)"/>
<path d="M0 0 C9.24 0 18.48 0 28 0 C28 4.62 28 9.24 28 14 C18.76 14 9.52 14 0 14 C0 9.38 0 4.76 0 0 Z " fill="#504328" transform="translate(1597,669)"/>
<path d="M0 0 C4.62 0 9.24 0 14 0 C14 8.91 14 17.82 14 27 C9.38 27 4.76 27 0 27 C0 18.09 0 9.18 0 0 Z " fill="#8F7731" transform="translate(3495,3127)"/>
<path d="M0 0 C4.62 0 9.24 0 14 0 C14 8.91 14 17.82 14 27 C9.38 27 4.76 27 0 27 C0 18.09 0 9.18 0 0 Z " fill="#A38F3D" transform="translate(3495,2690)"/>
<path d="M0 0 C8.91 0 17.82 0 27 0 C27 4.62 27 9.24 27 14 C18.09 14 9.18 14 0 14 C0 9.38 0 4.76 0 0 Z " fill="#EDB67F" transform="translate(1748,655)"/>
<path d="M0 0 C4.62 0 9.24 0 14 0 C14 4.62 14 9.24 14 14 C9.38 14 4.76 14 0 14 C0 9.38 0 4.76 0 0 Z " fill="#27271F" transform="translate(3195,3413)"/>
<path d="M0 0 C4.62 0 9.24 0 14 0 C14 4.62 14 9.24 14 14 C9.38 14 4.76 14 0 14 C0 9.38 0 4.76 0 0 Z " fill="#0A0E1A" transform="translate(2471,3413)"/>
<path d="M0 0 C4.62 0 9.24 0 14 0 C14 4.62 14 9.24 14 14 C9.38 14 4.76 14 0 14 C0 9.38 0 4.76 0 0 Z " fill="#0A100A" transform="translate(1597,3413)"/>
<path d="M0 0 C4.62 0 9.24 0 14 0 C14 4.62 14 9.24 14 14 C9.38 14 4.76 14 0 14 C0 9.38 0 4.76 0 0 Z " fill="#14110B" transform="translate(1461,3413)"/>
<path d="M0 0 C4.62 0 9.24 0 14 0 C14 4.62 14 9.24 14 14 C9.38 14 4.76 14 0 14 C0 9.38 0 4.76 0 0 Z " fill="#2A140E" transform="translate(737,3413)"/>
<path d="M0 0 C4.62 0 9.24 0 14 0 C14 4.62 14 9.24 14 14 C9.38 14 4.76 14 0 14 C0 9.38 0 4.76 0 0 Z " fill="#BFA63F" transform="translate(3495,3263)"/>
<path d="M0 0 C4.62 0 9.24 0 14 0 C14 4.62 14 9.24 14 14 C9.38 14 4.76 14 0 14 C0 9.38 0 4.76 0 0 Z " fill="#8D9C91" transform="translate(2321,3263)"/>
<path d="M0 0 C4.62 0 9.24 0 14 0 C14 4.62 14 9.24 14 14 C9.38 14 4.76 14 0 14 C0 9.38 0 4.76 0 0 Z " fill="#E49C8C" transform="translate(1447,3263)"/>
<path d="M0 0 C4.62 0 9.24 0 14 0 C14 4.62 14 9.24 14 14 C9.38 14 4.76 14 0 14 C0 9.38 0 4.76 0 0 Z " fill="#929249" transform="translate(573,3263)"/>
<path d="M0 0 C4.62 0 9.24 0 14 0 C14 4.62 14 9.24 14 14 C9.38 14 4.76 14 0 14 C0 9.38 0 4.76 0 0 Z " fill="#856F32" transform="translate(3495,2976)"/>
<path d="M0 0 C4.62 0 9.24 0 14 0 C14 4.62 14 9.24 14 14 C9.38 14 4.76 14 0 14 C0 9.38 0 4.76 0 0 Z " fill="#A69037" transform="translate(3495,2826)"/>
<path d="M0 0 C4.62 0 9.24 0 14 0 C14 4.62 14 9.24 14 14 C9.38 14 4.76 14 0 14 C0 9.38 0 4.76 0 0 Z " fill="#6D6D24" transform="translate(3618,2676)"/>
<path d="M0 0 C4.62 0 9.24 0 14 0 C14 4.62 14 9.24 14 14 C9.38 14 4.76 14 0 14 C0 9.38 0 4.76 0 0 Z " fill="#38618F" transform="translate(3195,2403)"/>
<path d="M0 0 C4.62 0 9.24 0 14 0 C14 4.62 14 9.24 14 14 C9.38 14 4.76 14 0 14 C0 9.38 0 4.76 0 0 Z " fill="#2675A3" transform="translate(2621,2403)"/>
<path d="M0 0 C4.62 0 9.24 0 14 0 C14 4.62 14 9.24 14 14 C9.38 14 4.76 14 0 14 C0 9.38 0 4.76 0 0 Z " fill="#3F3F3F" transform="translate(2758,2116)"/>
<path d="M0 0 C4.62 0 9.24 0 14 0 C14 4.62 14 9.24 14 14 C9.38 14 4.76 14 0 14 C0 9.38 0 4.76 0 0 Z " fill="#926D49" transform="translate(587,2116)"/>
<path d="M0 0 C4.62 0 9.24 0 14 0 C14 4.62 14 9.24 14 14 C9.38 14 4.76 14 0 14 C0 9.38 0 4.76 0 0 Z " fill="#7F6633" transform="translate(573,1952)"/>
<path d="M0 0 C4.62 0 9.24 0 14 0 C14 4.62 14 9.24 14 14 C9.38 14 4.76 14 0 14 C0 9.38 0 4.76 0 0 Z " fill="#D88A63" transform="translate(1447,1816)"/>
<path d="M0 0 C4.62 0 9.24 0 14 0 C14 4.62 14 9.24 14 14 C9.38 14 4.76 14 0 14 C0 9.38 0 4.76 0 0 Z " fill="#6E4C34" transform="translate(737,1816)"/>
<path d="M0 0 C4.62 0 9.24 0 14 0 C14 4.62 14 9.24 14 14 C9.38 14 4.76 14 0 14 C0 9.38 0 4.76 0 0 Z " fill="#3F3F1F" transform="translate(2758,1529)"/>
<path d="M0 0 C4.62 0 9.24 0 14 0 C14 4.62 14 9.24 14 14 C9.38 14 4.76 14 0 14 C0 9.38 0 4.76 0 0 Z " fill="#333333" transform="translate(737,1529)"/>
<path d="M0 0 C4.62 0 9.24 0 14 0 C14 4.62 14 9.24 14 14 C9.38 14 4.76 14 0 14 C0 9.38 0 4.76 0 0 Z " fill="#BF9F5F" transform="translate(1611,792)"/>
<path d="M0 0 C4.62 0 9.24 0 14 0 C14 4.62 14 9.24 14 14 C9.38 14 4.76 14 0 14 C0 9.38 0 4.76 0 0 Z " fill="#552A2A" transform="translate(1597,669)"/>
<path d="M0 0 C4.95 0 9.9 0 15 0 C14.67 4.29 14.34 8.58 14 13 C9.38 13.33 4.76 13.66 0 14 C0 9.38 0 4.76 0 0 Z " fill="#E39C6B" transform="translate(751,1830)"/>
<path d="M0 0 C4.62 0 9.24 0 14 0 C13.67 4.62 13.34 9.24 13 14 C8.71 14 4.42 14 0 14 C0 9.38 0 4.76 0 0 Z " fill="#363339" transform="translate(3209,2553)"/>
<path d="M0 0 C4.29 0 8.58 0 13 0 C13 4.62 13 9.24 13 14 C8.71 14 4.42 14 0 14 C0 9.38 0 4.76 0 0 Z " fill="#7F7F3F" transform="translate(3632,3413)"/>
<path d="M0 0 C4.62 0 9.24 0 14 0 C14 4.29 14 8.58 14 13 C9.38 13 4.76 13 0 13 C0 8.71 0 4.42 0 0 Z " fill="#3955B0" transform="translate(2485,3400)"/>
<path d="M0 0 C4.62 0 9.24 0 14 0 C14 4.29 14 8.58 14 13 C9.38 13 4.76 13 0 13 C0 8.71 0 4.42 0 0 Z " fill="#7A947F" transform="translate(2321,3400)"/>
<path d="M0 0 C4.62 0 9.24 0 14 0 C14 4.29 14 8.58 14 13 C9.38 13 4.76 13 0 13 C0 8.71 0 4.42 0 0 Z " fill="#599C65" transform="translate(1611,3400)"/>
<path d="M0 0 C4.62 0 9.24 0 14 0 C14 4.29 14 8.58 14 13 C9.38 13 4.76 13 0 13 C0 8.71 0 4.42 0 0 Z " fill="#FFE85D" transform="translate(3495,2690)"/>
<path d="M0 0 C4.62 0 9.24 0 14 0 C14 4.29 14 8.58 14 13 C9.38 13 4.76 13 0 13 C0 8.71 0 4.42 0 0 Z " fill="#597083" transform="translate(3195,2690)"/>
<path d="M0 0 C4.62 0 9.24 0 14 0 C14 4.29 14 8.58 14 13 C9.38 13 4.76 13 0 13 C0 8.71 0 4.42 0 0 Z " fill="#1D3F64" transform="translate(2471,2690)"/>
<path d="M0 0 C4.62 0 9.24 0 14 0 C14 4.29 14 8.58 14 13 C9.38 13 4.76 13 0 13 C0 8.71 0 4.42 0 0 Z " fill="#A5B5A8" transform="translate(2321,2690)"/>
<path d="M0 0 C4.62 0 9.24 0 14 0 C14 4.29 14 8.58 14 13 C9.38 13 4.76 13 0 13 C0 8.71 0 4.42 0 0 Z " fill="#FDAAAC" transform="translate(1447,2690)"/>
<path d="M0 0 C4.29 0 8.58 0 13 0 C13 4.62 13 9.24 13 14 C8.71 14 4.42 14 0 14 C0 9.38 0 4.76 0 0 Z " fill="#7F6619" transform="translate(3632,2676)"/>
<path d="M0 0 C4.29 0 8.58 0 13 0 C13 4.62 13 9.24 13 14 C8.71 14 4.42 14 0 14 C0 9.38 0 4.76 0 0 Z " fill="#5F5F1F" transform="translate(3632,2403)"/>
<path d="M0 0 C4.29 0 8.58 0 13 0 C13 4.62 13 9.24 13 14 C8.71 14 4.42 14 0 14 C0 9.38 0 4.76 0 0 Z " fill="#624E27" transform="translate(3482,2266)"/>
<path d="M0 0 C4.62 0 9.24 0 14 0 C14 4.29 14 8.58 14 13 C9.38 13 4.76 13 0 13 C0 8.71 0 4.42 0 0 Z " fill="#C78E71" transform="translate(587,2253)"/>
<path d="M0 0 C4.29 0 8.58 0 13 0 C13 4.62 13 9.24 13 14 C8.71 14 4.42 14 0 14 C0 9.38 0 4.76 0 0 Z " fill="#4C4C19" transform="translate(451,1952)"/>
<path d="M0 0 C4.62 0 9.24 0 14 0 C14 4.29 14 8.58 14 13 C9.38 13 4.76 13 0 13 C0 8.71 0 4.42 0 0 Z " fill="#FFCC66" transform="translate(587,1830)"/>
<path d="M0 0 C4.62 0 9.24 0 14 0 C14 4.29 14 8.58 14 13 C9.38 13 4.76 13 0 13 C0 8.71 0 4.42 0 0 Z " fill="#6A552A" transform="translate(573,1830)"/>
<path d="M0 0 C4.29 0 8.58 0 13 0 C13 4.62 13 9.24 13 14 C8.71 14 4.42 14 0 14 C0 9.38 0 4.76 0 0 Z " fill="#7F593C" transform="translate(874,1816)"/>
<path d="M0 0 C4.29 0 8.58 0 13 0 C13 4.62 13 9.24 13 14 C8.71 14 4.42 14 0 14 C0 9.38 0 4.76 0 0 Z " fill="#55552A" transform="translate(451,1816)"/>
<path d="M0 0 C4.29 0 8.58 0 13 0 C13 4.62 13 9.24 13 14 C8.71 14 4.42 14 0 14 C0 9.38 0 4.76 0 0 Z " fill="#550000" transform="translate(1311,1256)"/>
<path d="M0 0 C4.62 0 9.24 0 14 0 C14 4.29 14 8.58 14 13 C9.38 13 4.76 13 0 13 C0 8.71 0 4.42 0 0 Z " fill="#275726" transform="translate(2471,956)"/>
<path d="M0 0 C4.29 0 8.58 0 13 0 C13 4.62 13 9.24 13 14 C8.71 14 4.42 14 0 14 C0 9.38 0 4.76 0 0 Z " fill="#A8D1A4" transform="translate(2185,819)"/>
<path d="M0 0 C4.29 0 8.58 0 13 0 C13 4.62 13 9.24 13 14 C8.71 14 4.42 14 0 14 C0 9.38 0 4.76 0 0 Z " fill="#9F7F5F" transform="translate(2608,792)"/>
<path d="M0 0 C4.29 0 8.58 0 13 0 C13 4.62 13 9.24 13 14 C8.71 14 4.42 14 0 14 C0 9.38 0 4.76 0 0 Z " fill="#D5AA7F" transform="translate(1748,655)"/>
<path d="M0 0 C4.29 0 8.58 0 13 0 C13 4.62 13 9.24 13 14 C8.71 14 4.42 14 0 14 C0 9.38 0 4.76 0 0 Z " fill="#3F5515" transform="translate(1898,532)"/>
<path d="M0 0 C4.29 0 8.58 0 13 0 C13 4.29 13 8.58 13 13 C8.71 13 4.42 13 0 13 C0 8.71 0 4.42 0 0 Z " fill="#4684C1" transform="translate(3045,2690)"/>
<path d="M0 0 C4.29 0 8.58 0 13 0 C13 4.29 13 8.58 13 13 C8.71 13 4.42 13 0 13 C0 8.71 0 4.42 0 0 Z " fill="#789F7F" transform="translate(2185,2690)"/>
<path d="M0 0 C4.29 0 8.58 0 13 0 C13 4.29 13 8.58 13 13 C8.71 13 4.42 13 0 13 C0 8.71 0 4.42 0 0 Z " fill="#CB6565" transform="translate(1311,2690)"/>
<path d="M0 0 C4.29 0 8.58 0 13 0 C13 4.29 13 8.58 13 13 C8.71 13 4.42 13 0 13 C0 8.71 0 4.42 0 0 Z " fill="#3F3F00" transform="translate(3482,2253)"/>
<path d="M0 0 C4.29 0 8.58 0 13 0 C13 4.29 13 8.58 13 13 C8.71 13 4.42 13 0 13 C0 8.71 0 4.42 0 0 Z " fill="#88BC85" transform="translate(2185,956)"/>
<path d="M0 0 C4.29 0 8.58 0 13 0 C13 4.29 13 8.58 13 13 C8.71 13 4.42 13 0 13 C0 8.71 0 4.42 0 0 Z " fill="#93C689" transform="translate(1748,956)"/>
<path d="M0 0 C4.29 0 8.58 0 13 0 C13 4.29 13 8.58 13 13 C8.71 13 4.42 13 0 13 C0 8.71 0 4.42 0 0 Z " fill="#242424" transform="translate(1311,956)"/>
<path d="M0 0 C4.29 0 8.58 0 13 0 C13 4.29 13 8.58 13 13 C8.71 13 4.42 13 0 13 C0 8.71 0 4.42 0 0 Z " fill="#2A2A2A" transform="translate(1898,519)"/>
</svg>
